<svg width="15" height="16" viewBox="0 0 15 16" fill="none" xmlns="http://www.w3.org/2000/svg">
<g clip-path="url(#clip0_4403_28899)">
<path d="M14.9999 8.04596C14.9999 3.87783 11.6418 0.499084 7.49992 0.499084C3.35617 0.500022 -0.00195312 3.87784 -0.00195312 8.0469C-0.00195312 11.8128 2.74117 14.9347 6.32617 15.501V10.2275H4.42305V8.0469H6.32805V6.38283C6.32805 4.4919 7.44836 3.44752 9.16117 3.44752C9.98242 3.44752 10.8402 3.59471 10.8402 3.59471V5.45096H9.8943C8.96336 5.45096 8.67273 6.03315 8.67273 6.63033V8.04596H10.7521L10.4202 10.2266H8.6718V15.5C12.2568 14.9338 14.9999 11.8119 14.9999 8.04596Z" fill="#747474"/>
</g>
<defs>
<clipPath id="clip0_4403_28899">
<rect width="15" height="15" fill="white" transform="translate(0 0.5)"/>
</clipPath>
</defs>
</svg>
