<svg width="15" height="16" viewBox="0 0 15 16" fill="none" xmlns="http://www.w3.org/2000/svg">
<g clip-path="url(#clip0_4403_28897)">
<path d="M0 1.57438C0 0.980938 0.493125 0.5 1.10156 0.5H13.8984C14.5069 0.5 15 0.980938 15 1.57438V14.4256C15 15.0191 14.5069 15.5 13.8984 15.5H1.10156C0.493125 15.5 0 15.0191 0 14.4256V1.57438ZM4.63406 13.0569V6.28344H2.38313V13.0569H4.63406ZM3.50906 5.35813C4.29375 5.35813 4.78219 4.83875 4.78219 4.18813C4.76813 3.52344 4.29469 3.01813 3.52406 3.01813C2.75344 3.01813 2.25 3.52437 2.25 4.18813C2.25 4.83875 2.73844 5.35813 3.49406 5.35813H3.50906ZM8.11031 13.0569V9.27406C8.11031 9.07156 8.12531 8.86906 8.18531 8.72469C8.3475 8.32062 8.71781 7.90156 9.34031 7.90156C10.155 7.90156 10.4803 8.52219 10.4803 9.43344V13.0569H12.7312V9.17188C12.7312 7.09062 11.6213 6.12313 10.14 6.12313C8.94563 6.12313 8.41031 6.77938 8.11031 7.24156V7.265H8.09531L8.11031 7.24156V6.28344H5.86031C5.88844 6.91906 5.86031 13.0569 5.86031 13.0569H8.11031Z" fill="#747474"/>
</g>
<defs>
<clipPath id="clip0_4403_28897">
<rect width="15" height="15" fill="white" transform="translate(0 0.5)"/>
</clipPath>
</defs>
</svg>
