<svg width="15" height="16" viewBox="0 0 15 16" fill="none" xmlns="http://www.w3.org/2000/svg">
<path d="M4.71187 15.5C10.3725 15.5 13.4691 9.72761 13.4691 4.73057C13.4703 4.56827 13.4684 4.40598 13.4634 4.24368C14.0661 3.70629 14.5864 3.04138 15 2.27994C14.4367 2.58485 13.84 2.78622 13.2291 2.8776C13.8727 2.40421 14.3548 1.65921 14.5856 0.781169C13.9812 1.22275 13.3192 1.5323 12.6291 1.69612C12.1652 1.0881 11.5513 0.68531 10.8826 0.550133C10.2138 0.414955 9.52755 0.554937 8.93 0.948396C8.33246 1.34185 7.85701 1.96683 7.5773 2.72652C7.29759 3.48621 7.22923 4.33821 7.38281 5.15055C6.15907 5.07539 4.96186 4.68432 3.8689 4.00273C2.77595 3.32113 1.81169 2.36425 1.03875 1.19422C0.646482 2.02857 0.526828 3.01534 0.704069 3.95429C0.88131 4.89323 1.34217 5.71403 1.99312 6.25011C1.50507 6.2307 1.02768 6.06939 0.6 5.77936V5.83128C0.601193 6.70514 0.847331 7.55173 1.29687 8.22815C1.7464 8.90457 2.3718 9.36939 3.0675 9.54416C2.80338 9.63376 2.53053 9.6784 2.25656 9.67685C2.06336 9.67932 1.87047 9.65728 1.68094 9.61108C1.87724 10.3637 2.2601 11.0218 2.77578 11.4929C3.29146 11.9641 3.91408 12.2247 4.55625 12.2382C3.4651 13.2916 2.11804 13.8633 0.73125 13.8616C0.486842 13.8639 0.242575 13.8465 0 13.8097C1.40758 14.9144 3.04244 15.5009 4.71187 15.5Z" fill="#747474"/>
</svg>
